<?xml version="1.0" standalone="no"?>
<!DOCTYPE svg PUBLIC "-//W3C//DTD SVG 20010904//EN"
 "http://www.w3.org/TR/2001/REC-SVG-20010904/DTD/svg10.dtd">
<svg version="1.0" xmlns="http://www.w3.org/2000/svg"
 width="512.000000pt" height="512.000000pt" viewBox="0 0 512.000000 512.000000"
 preserveAspectRatio="xMidYMid meet">
<metadata>
Created by potrace 1.13, written by Peter Selinger 2001-2015
</metadata>
<g transform="translate(0.000000,512.000000) scale(0.080000,-0.080000)"
fill="#000000" stroke="none">
<path d="M4043 5693 c-7 -2 -13 -12 -12 -21 0 -11 2 -12 6 -4 8 21 63 13 106
-17 58 -39 125 -114 147 -163 11 -24 20 -35 25 -28 5 8 11 6 20 -6 12 -17 45
-28 45 -16 0 4 -9 22 -20 40 -28 45 -24 63 5 27 13 -16 27 -26 31 -22 19 18
-67 125 -129 162 -62 36 -188 63 -224 48z"/>
<path d="M3105 5654 c-224 -22 -381 -54 -559 -115 -238 -81 -360 -147 -426
-231 -38 -47 -58 -60 -189 -124 -406 -198 -590 -461 -661 -943 -24 -163 -25
-259 -5 -395 8 -57 17 -188 19 -292 3 -166 6 -202 30 -294 15 -57 31 -107 37
-111 6 -3 -10 -16 -35 -28 -80 -39 -130 -123 -161 -273 -20 -93 -19 -150 5
-242 26 -102 63 -169 132 -239 68 -69 184 -128 266 -135 l52 -4 0 -39 c0 -118
53 -209 135 -231 38 -10 44 -17 80 -87 52 -99 156 -206 245 -251 171 -87 434
-151 735 -180 167 -16 151 -5 144 -107 -3 -55 -12 -102 -24 -127 -32 -67 -121
-120 -358 -212 -290 -113 -323 -128 -369 -161 -60 -43 -102 -91 -133 -153
l-25 -50 1273 -2 c700 -2 1281 -2 1290 0 63 12 -43 185 -153 250 -40 23 -192
87 -330 139 -145 54 -273 118 -309 155 -50 50 -63 84 -69 174 -6 96 -16 89
128 99 188 13 434 61 542 106 180 74 284 173 374 354 55 109 60 116 96 127 23
7 50 25 66 45 15 19 44 50 64 70 25 24 40 50 48 84 10 42 18 53 49 69 89 47
194 159 247 262 101 200 60 501 -80 587 -20 13 -36 29 -36 37 0 8 20 92 44
187 79 304 126 574 126 720 0 99 -21 242 -49 337 -11 36 -24 81 -30 100 -5 19
-14 80 -20 134 -14 143 -47 204 -169 321 -52 49 -145 140 -207 202 -92 90
-127 118 -187 147 -42 20 -84 36 -94 36 -10 -1 8 -14 41 -29 54 -26 122 -81
99 -81 -5 0 -41 13 -79 29 -64 26 -147 50 -135 38 3 -2 46 -22 96 -44 186 -82
430 -275 525 -415 35 -51 78 -179 61 -178 -4 0 -27 31 -52 68 -60 89 -157 190
-244 255 -109 82 -109 79 5 -34 207 -204 324 -405 370 -634 24 -120 17 -371
-15 -560 -36 -211 -89 -469 -122 -586 -3 -11 -13 -14 -34 -11 -25 4 -30 9 -30
32 0 15 -8 34 -17 43 -22 19 -131 53 -282 87 l-115 25 -47 70 c-37 53 -53 90
-68 155 -34 142 -64 352 -91 650 -6 63 -14 117 -17 120 -3 3 -3 -96 1 -220 5
-207 25 -419 42 -464 7 -18 6 -18 -18 -2 -58 38 -87 171 -89 399 -1 155 -14
125 -27 -63 l-8 -115 -47 73 c-102 155 -145 281 -161 477 -11 143 -12 147 -19
86 -4 -35 -7 -94 -7 -130 0 -83 -21 -222 -32 -215 -5 3 -6 76 -3 162 3 86 7
204 9 262 5 143 -7 62 -29 -193 -14 -165 -15 -215 -5 -299 12 -107 49 -239 75
-273 13 -18 14 -16 1 20 -23 68 -28 148 -16 261 13 119 24 146 35 87 14 -75
92 -231 167 -331 22 -29 48 -80 59 -114 24 -72 40 -100 90 -153 44 -47 89
-149 89 -201 0 -32 -2 -36 -22 -31 -191 46 -1006 25 -1109 -28 -16 -9 -29 -19
-29 -24 0 -5 -55 -7 -121 -5 -103 3 -125 6 -143 22 -12 11 -41 24 -66 30 -73
18 -305 34 -443 30 -129 -3 -165 4 -79 17 26 3 117 24 202 46 181 46 302 101
401 182 40 34 86 61 119 72 87 28 240 112 303 165 120 103 186 205 267 415
l31 80 -6 -95 c-7 -117 -46 -303 -74 -358 -12 -23 -42 -67 -67 -99 -42 -54
-41 -53 29 19 117 120 203 313 241 538 14 85 24 306 13 316 -2 2 -9 -53 -16
-123 -18 -183 -59 -369 -90 -405 -4 -4 -3 25 1 65 3 39 7 120 7 178 1 69 7
122 17 152 9 26 14 52 12 58 -2 6 -32 -62 -67 -150 -75 -193 -185 -417 -238
-486 -71 -92 -236 -204 -353 -240 -23 -7 -23 -5 11 36 70 86 251 383 282 462
12 32 0 16 -41 -52 -60 -101 -184 -273 -266 -370 -83 -99 -172 -172 -276 -228
-81 -44 -245 -100 -319 -109 -45 -6 -46 -6 -23 11 l24 17 -42 38 c-24 22 -64
44 -100 56 -33 10 -56 22 -52 26 4 4 52 25 106 48 108 45 196 89 293 148 121
73 87 64 -77 -20 -133 -69 -397 -165 -475 -173 -61 -7 -104 -24 -140 -54 -11
-10 -51 -28 -90 -40 -171 -57 -435 -183 -495 -237 -9 -7 -49 -27 -90 -43 -86
-35 -100 -50 -100 -103 0 -38 -1 -38 -39 -38 l-39 0 -16 73 c-31 135 -39 228
-33 407 4 146 11 205 40 355 66 332 115 512 177 657 22 50 38 93 36 95 -2 2
-22 -32 -45 -76 -54 -104 -159 -425 -202 -616 l-34 -149 -8 64 c-11 85 -1 308
17 390 18 83 70 239 98 293 28 57 91 149 152 225 122 153 329 278 649 393 271
98 719 207 922 225 123 11 137 25 19 19 -136 -6 -336 -36 -479 -70 -33 -8
-116 -28 -185 -44 -69 -17 -165 -44 -214 -60 -49 -17 -92 -29 -94 -26 -12 12
84 85 160 122 351 172 959 254 1373 187 112 -18 314 -69 380 -96 28 -11 80
-33 118 -49 80 -34 86 -35 62 -9 -69 76 -358 178 -598 210 -104 13 -410 11
-572 -6z m-525 -2138 l95 -23 -40 -11 c-155 -40 -363 -82 -430 -87 -87 -7
-419 -52 -447 -61 -10 -3 -18 -1 -18 4 0 16 353 174 450 201 54 16 292 2 390
-23z m330 -246 c136 -11 215 -31 230 -60 13 -24 13 -153 0 -300 -13 -144 -36
-198 -122 -284 -74 -73 -149 -113 -288 -150 -130 -34 -211 -45 -397 -52 -236
-10 -504 31 -593 90 -52 34 -89 107 -95 188 -3 35 -8 82 -10 106 -3 23 -1 42
4 42 4 0 22 -21 38 -47 17 -27 43 -59 57 -73 22 -20 19 -9 -23 70 -66 127 -83
182 -73 244 7 46 10 50 47 63 72 26 278 83 282 79 2 -2 -12 -73 -30 -157 -45
-201 -50 -226 -38 -214 21 21 62 171 75 271 8 58 16 107 18 108 1 2 39 10 83
20 44 9 118 26 165 37 47 10 105 20 130 22 103 8 424 6 540 -3z m1559 -1 c80
-7 147 -13 149 -14 1 -1 9 -41 18 -89 18 -106 58 -246 84 -294 26 -51 25 -35
-19 183 -21 105 -37 191 -36 193 5 5 182 -37 219 -52 50 -21 66 -62 66 -169 0
-80 -27 -196 -61 -258 -21 -40 2 -17 28 29 l28 47 3 -31 c2 -18 -8 -51 -23
-82 -17 -35 -28 -77 -33 -129 l-7 -77 -45 -23 c-85 -43 -168 -55 -428 -60
-288 -6 -415 8 -584 64 -260 86 -338 203 -338 506 0 119 10 191 27 208 46 46
605 75 952 48z m-2516 -59 c-78 -22 -176 -53 -219 -69 -43 -17 -80 -29 -82
-27 -2 3 2 14 8 26 18 34 93 61 235 86 198 34 220 28 58 -16z m1432 -30 c41
-16 59 -70 45 -139 -24 -116 -23 -127 4 -178 14 -26 33 -68 41 -93 40 -114
109 -189 235 -254 120 -63 218 -86 476 -116 125 -14 236 -12 389 5 155 19 235
38 291 71 36 21 43 22 53 10 41 -50 138 -39 199 22 31 31 69 108 58 119 -1 2
-14 -14 -27 -34 -29 -44 -92 -90 -135 -99 -25 -5 -36 -1 -53 17 -14 15 -20 31
-16 44 3 11 12 65 21 120 8 55 19 104 24 109 6 6 42 5 91 -2 45 -7 84 -11 85
-9 2 2 -29 17 -68 34 l-71 30 52 42 c29 22 59 41 67 41 30 0 76 -55 89 -107
13 -48 11 -77 -10 -143 -5 -17 -4 -22 3 -15 15 15 42 114 42 156 0 20 -9 56
-20 80 l-19 44 24 3 c40 5 30 29 -15 37 -33 6 -49 1 -100 -26 -33 -18 -81 -50
-106 -72 -25 -22 -46 -38 -48 -36 -2 2 4 28 12 58 12 41 30 69 75 118 37 39
62 76 66 96 6 28 10 32 36 29 17 -2 50 -13 75 -25 65 -32 96 -99 110 -234 11
-110 -1 -201 -41 -307 -40 -108 -179 -239 -282 -267 -21 -6 -72 -9 -113 -8
-73 3 -101 -5 -75 -20 10 -7 11 -16 3 -42 -76 -242 -97 -303 -127 -364 -45
-91 -83 -136 -153 -184 -149 -101 -325 -153 -627 -186 -242 -26 -510 -38 -773
-32 -265 5 -403 19 -652 62 -457 80 -549 137 -663 405 -44 105 -107 297 -107
328 0 13 -4 21 -9 18 -4 -3 -39 -10 -78 -16 -118 -18 -229 20 -332 116 -110
102 -166 276 -141 439 7 44 19 96 27 114 34 84 108 144 194 156 45 7 46 6 52
-22 3 -16 26 -52 52 -80 47 -53 67 -97 79 -173 l7 -45 -35 50 c-43 65 -85 96
-164 125 -74 27 -89 21 -33 -12 23 -14 38 -28 34 -31 -3 -4 0 -7 7 -7 8 0 1
-14 -17 -32 -18 -18 -48 -60 -68 -93 l-36 -60 7 40 c4 22 18 63 33 90 38 73
37 74 -8 31 -63 -61 -84 -151 -55 -242 22 -71 63 -114 109 -114 24 0 37 -7 49
-25 18 -27 84 -65 114 -65 51 0 99 88 85 153 -4 22 -4 22 11 2 8 -11 25 -34
38 -52 69 -96 334 -151 673 -140 359 12 556 72 700 216 54 54 106 140 119 195
4 16 18 43 32 59 27 32 29 57 12 156 -15 90 -5 130 42 153 39 20 95 23 135 8z
m-1882 -330 c14 -11 37 -44 51 -73 25 -51 50 -172 42 -199 -2 -7 -7 -25 -10
-40 -4 -17 -18 -34 -36 -43 -26 -13 -34 -13 -72 0 -24 8 -44 19 -46 25 -2 5
-16 10 -31 10 -16 0 -40 10 -55 21 -32 25 -31 40 11 159 18 49 40 89 66 117
22 24 43 43 47 43 4 0 19 -9 33 -20z m-184 -151 c-14 -41 -29 -60 -29 -36 0
20 29 81 36 75 2 -3 -1 -20 -7 -39z m3658 -456 c2 -5 -5 -36 -15 -68 -14 -46
-25 -65 -51 -82 -19 -13 -37 -23 -41 -23 -4 0 -2 26 6 58 7 31 16 74 19 95 6
36 7 37 43 34 20 -2 37 -8 39 -14z m40 -23 c-10 -35 -27 -55 -27 -31 0 30 14
71 25 71 9 0 10 -9 2 -40z m-3287 8 c0 -17 -3 -19 -9 -9 -22 35 -18 -16 9
-105 16 -55 30 -102 30 -107 0 -14 -80 33 -94 56 -8 12 -17 45 -21 72 -3 28
-8 59 -10 71 -4 19 13 28 88 43 4 0 7 -9 7 -21z m1974 -883 c3 -47 13 -103 22
-125 9 -23 15 -42 13 -44 -22 -19 -160 -70 -223 -83 -93 -18 -275 -12 -387 11
-91 20 -173 62 -164 84 13 34 25 116 25 173 l0 59 198 -5 c154 -4 466 4 503
13 3 1 9 -36 13 -83z m104 -214 c12 -11 22 -23 22 -28 0 -30 -126 -101 -225
-128 -141 -38 -353 -38 -500 0 -76 20 -225 92 -225 108 0 7 13 23 30 35 l30
22 47 -23 c100 -50 164 -61 363 -61 167 -1 192 1 260 22 41 13 93 35 115 48
48 28 53 29 83 5z"/>
<path d="M2544 3054 c17 -12 18 -14 3 -14 -9 0 -17 -4 -17 -10 0 -5 -19 -11
-42 -11 -24 -1 -56 -5 -73 -9 l-30 -8 31 -1 c16 0 39 -9 50 -20 16 -15 35 -19
90 -18 38 0 84 -1 102 -3 18 -2 35 0 39 3 17 18 -75 84 -135 98 -34 7 -35 6
-18 -7z"/>
<path d="M1810 2871 c0 -53 23 -163 41 -191 6 -10 7 2 3 34 -5 35 -4 47 5 42
14 -9 15 -14 -19 84 l-30 85 0 -54z"/>
<path d="M4037 3030 c-53 -17 -97 -44 -97 -59 0 -3 56 -7 125 -8 69 -1 125 2
125 7 0 5 8 11 18 13 11 3 9 5 -8 6 -20 1 -22 3 -10 11 11 7 6 10 -21 10 -44
0 -54 9 -31 26 15 12 14 13 -13 13 -16 0 -56 -8 -88 -19z"/>
<path d="M4830 2881 c0 -13 -7 -50 -16 -83 -17 -68 -13 -85 10 -40 22 42 30
106 17 128 -10 18 -10 17 -11 -5z"/>
<path d="M2005 2296 c-74 -36 -106 -66 -99 -93 5 -18 11 -22 30 -17 19 5 24 1
29 -23 27 -127 66 -227 107 -274 59 -68 175 -117 368 -155 223 -44 310 -49
905 -49 482 0 577 3 685 18 437 62 549 142 614 439 6 24 10 27 44 25 32 -2 37
1 40 21 2 13 -3 24 -12 28 -9 3 -14 10 -11 14 9 14 -70 69 -119 82 -47 12
-118 6 -506 -47 -196 -27 -464 -40 -810 -40 -399 1 -573 12 -904 60 -131 19
-255 35 -275 35 -20 0 -58 -11 -86 -24z m2561 -30 c16 -12 19 -27 19 -85 0
-63 -3 -73 -29 -100 -15 -16 -39 -32 -53 -35 -26 -7 -22 -28 5 -24 13 2 18 -6
20 -35 4 -50 -48 -123 -115 -159 -168 -91 -425 -118 -1083 -116 -578 2 -724
12 -960 70 -140 33 -205 64 -255 119 -48 53 -63 172 -20 155 8 -3 17 -1 20 3
2 5 -8 11 -23 15 -49 10 -56 21 -60 93 -5 92 2 98 123 96 51 -1 126 -6 166
-12 309 -46 458 -55 914 -55 278 0 511 4 610 12 264 21 475 42 565 57 113 17
133 18 156 1z"/>
<path d="M4410 2040 c0 -5 -20 -10 -44 -10 -45 0 -68 -13 -41 -24 23 -8 123
15 129 30 4 10 -2 14 -19 14 -14 0 -25 -4 -25 -10z"/>
<path d="M3215 5460 c-38 -7 -36 -7 20 -8 33 -1 67 3 75 8 18 11 -31 11 -95 0z"/>
<path d="M4585 5453 c-77 -9 -165 -49 -165 -74 0 -6 7 -3 16 6 35 35 76 47
158 46 191 0 290 -52 413 -218 30 -40 55 -73 57 -73 1 0 -19 44 -45 98 -48
102 -78 136 -151 173 -73 37 -186 54 -283 42z"/>
<path d="M4791 5092 c80 -61 99 -73 99 -64 0 10 -99 82 -114 82 -5 0 2 -8 15
-18z"/>
<path d="M4170 3659 c-103 -13 -246 -95 -225 -129 15 -24 50 -26 129 -8 79 19
309 40 334 30 17 -6 15 4 -9 53 -19 38 -26 43 -63 48 -22 4 -54 8 -71 11 -16
2 -59 0 -95 -5z"/>
</g>
</svg>
